<svg xmlns="http://www.w3.org/2000/svg" width="960" height="350" viewBox="0 0 960 350" role="img" aria-labelledby="title description">
  <title id="title">HarshitGupta314 Codeforces rating history</title>
  <desc id="description">Rating progression across 7 contests, ending at 1668 with a peak of 1668.</desc>
  <defs>
    <linearGradient id="area" x1="0" y1="0" x2="0" y2="1">
      <stop offset="0" stop-color="#58a6ff" stop-opacity="0.35" />
      <stop offset="1" stop-color="#58a6ff" stop-opacity="0.02" />
    </linearGradient>
    <linearGradient id="line" x1="0" y1="0" x2="1" y2="0">
      <stop offset="0" stop-color="#8b949e" />
      <stop offset="0.55" stop-color="#3fb950" />
      <stop offset="1" stop-color="#58a6ff" />
    </linearGradient>
  </defs>
  <rect width="960" height="350" rx="12" fill="#0d1117" />
  <rect x="0.5" y="0.5" width="959" height="349" rx="11.5" fill="none" stroke="#30363d" />
  <text x="32" y="38" fill="#f0f6fc" font-family="Inter, Segoe UI, Arial, sans-serif" font-size="21" font-weight="700">Codeforces Rating Journey</text>
  <text x="32" y="63" fill="#8b949e" font-family="Inter, Segoe UI, Arial, sans-serif" font-size="13">HarshitGupta314  &#8226;  7 rated contests  &#8226;  Peak 1668  &#8226;  Expert</text>
  <g font-family="JetBrains Mono, Consolas, monospace">
    <line x1="74" y1="288.0" x2="920" y2="288.0" stroke="#30363d" stroke-width="1" />
    <text x="60" y="293" fill="#8b949e" font-size="12" text-anchor="end">400</text>
    <line x1="74" y1="259.1" x2="920" y2="259.1" stroke="#30363d" stroke-width="1" />
    <text x="60" y="264.1" fill="#8b949e" font-size="12" text-anchor="end">600</text>
    <line x1="74" y1="230.3" x2="920" y2="230.3" stroke="#30363d" stroke-width="1" />
    <text x="60" y="235.3" fill="#8b949e" font-size="12" text-anchor="end">800</text>
    <line x1="74" y1="201.4" x2="920" y2="201.4" stroke="#30363d" stroke-width="1" />
    <text x="60" y="206.4" fill="#8b949e" font-size="12" text-anchor="end">1000</text>
    <line x1="74" y1="172.6" x2="920" y2="172.6" stroke="#30363d" stroke-width="1" />
    <text x="60" y="177.6" fill="#8b949e" font-size="12" text-anchor="end">1200</text>
    <line x1="74" y1="143.7" x2="920" y2="143.7" stroke="#30363d" stroke-width="1" />
    <text x="60" y="148.7" fill="#8b949e" font-size="12" text-anchor="end">1400</text>
    <line x1="74" y1="114.9" x2="920" y2="114.9" stroke="#30363d" stroke-width="1" />
    <text x="60" y="119.9" fill="#8b949e" font-size="12" text-anchor="end">1600</text>
    <line x1="74" y1="86.0" x2="920" y2="86.0" stroke="#30363d" stroke-width="1" />
    <text x="60" y="91" fill="#8b949e" font-size="12" text-anchor="end">1800</text>
    <path d="M74.0 268.5 L215.0 224.4 L356.0 191.6 L497.0 160.5 L638.0 154.4 L779.0 115.1 L920.0 105.0 L920.0 288.0 L74.0 288.0 Z" fill="url(#area)" />
    <path d="M74.0 268.5 L215.0 224.4 L356.0 191.6 L497.0 160.5 L638.0 154.4 L779.0 115.1 L920.0 105.0" fill="none" stroke="url(#line)" stroke-width="4" stroke-linecap="round" stroke-linejoin="round" />
    <g>
    <circle cx="74.0" cy="268.5" r="5" fill="#94a3b8" stroke="#0d1117" stroke-width="3" />
    <text x="74.0" y="256.5" fill="#c9d1d9" font-size="11" text-anchor="middle">535</text>
    <text x="74.0" y="323" fill="#8b949e" font-size="10" text-anchor="middle">#2226</text>
  </g>
<g>
    <circle cx="215.0" cy="224.4" r="5" fill="#94a3b8" stroke="#0d1117" stroke-width="3" />
    <text x="215.0" y="212.4" fill="#c9d1d9" font-size="11" text-anchor="middle">841</text>
    <text x="215.0" y="323" fill="#8b949e" font-size="10" text-anchor="middle">#2227</text>
  </g>
<g>
    <circle cx="356.0" cy="191.6" r="5" fill="#94a3b8" stroke="#0d1117" stroke-width="3" />
    <text x="356.0" y="179.6" fill="#c9d1d9" font-size="11" text-anchor="middle">1068</text>
    <text x="356.0" y="323" fill="#8b949e" font-size="10" text-anchor="middle">#2232</text>
  </g>
<g>
    <circle cx="497.0" cy="160.5" r="5" fill="#22c55e" stroke="#0d1117" stroke-width="3" />
    <text x="497.0" y="148.5" fill="#c9d1d9" font-size="11" text-anchor="middle">1284</text>
    <text x="497.0" y="323" fill="#8b949e" font-size="10" text-anchor="middle">#2234</text>
  </g>
<g>
    <circle cx="638.0" cy="154.4" r="5" fill="#22c55e" stroke="#0d1117" stroke-width="3" />
    <text x="638.0" y="142.4" fill="#c9d1d9" font-size="11" text-anchor="middle">1326</text>
    <text x="638.0" y="323" fill="#8b949e" font-size="10" text-anchor="middle">#2236</text>
  </g>
<g>
    <circle cx="779.0" cy="115.1" r="5" fill="#22d3ee" stroke="#0d1117" stroke-width="3" />
    <text x="779.0" y="103.1" fill="#c9d1d9" font-size="11" text-anchor="middle">1598</text>
    <text x="779.0" y="323" fill="#8b949e" font-size="10" text-anchor="middle">#2240</text>
  </g>
<g>
    <circle cx="920.0" cy="105.0" r="5" fill="#3b82f6" stroke="#0d1117" stroke-width="3" />
    <circle cx="920.0" cy="105.0" r="7" fill="none" stroke="#3b82f6" opacity="0.8"><animate attributeName="r" values="7;15;7" dur="2.2s" repeatCount="indefinite" /><animate attributeName="opacity" values="0.8;0;0.8" dur="2.2s" repeatCount="indefinite" /></circle>
    <text x="920.0" y="93.0" fill="#c9d1d9" font-size="11" text-anchor="middle">1668</text>
    <text x="920.0" y="323" fill="#8b949e" font-size="10" text-anchor="middle">#2238</text>
  </g>
  </g>
</svg>
