<svg xmlns="http://www.w3.org/2000/svg" width="1000" height="680" viewBox="0 0 1000 680" role="img" aria-labelledby="title description">
  <title id="title">HarshitGupta314 live Codeforces dashboard</title>
  <desc id="description">Current rating 1668, peak rating 1668, 54 problems solved, and 111 submissions.</desc>
  <defs>
    <linearGradient id="ratingArea" x1="0" y1="0" x2="0" y2="1">
      <stop offset="0" stop-color="#58a6ff" stop-opacity="0.3" />
      <stop offset="1" stop-color="#58a6ff" stop-opacity="0.01" />
    </linearGradient>
    <style>
      text { font-family: Inter, "Segoe UI", Arial, sans-serif; }
      .title { fill: #f0f6fc; font-size: 22px; font-weight: 700; }
      .section { fill: #f0f6fc; font-size: 15px; font-weight: 650; }
      .label { fill: #8b949e; font-size: 9px; font-weight: 700; }
      .metric { fill: #f0f6fc; font-size: 22px; font-weight: 750; }
      .detail { fill: #8b949e; font-size: 10px; }
      .small { fill: #c9d1d9; font-size: 11px; }
      .axis { fill: #6e7681; font-size: 10px; }
      .value { fill: #f0f6fc; font-size: 11px; font-weight: 700; }
    </style>
  </defs>

  <rect width="1000" height="680" rx="12" fill="#0d1117" />
  <rect x="0.5" y="0.5" width="999" height="679" rx="11.5" fill="none" stroke="#30363d" />

  <text x="30" y="37" class="title">Codeforces Dashboard</text>
  <text x="30" y="59" class="detail">HarshitGupta314  &#8226;  official Codeforces API</text>
  <circle cx="868" cy="37" r="5" fill="#3fb950">
    <animate attributeName="opacity" values="1;0.3;1" dur="2s" repeatCount="indefinite" />
  </circle>
  <text x="881" y="41" class="label">AUTO-SYNC EVERY 6 HOURS</text>

  <g>
    <rect x="30" y="78" width="148" height="76" rx="8" fill="#161b22" stroke="#30363d" />
    <rect x="30" y="78" width="148" height="3" rx="1.5" fill="#58a6ff" />
    <text x="44" y="101" class="label">CURRENT RATING</text>
    <text x="44" y="129" class="metric">1668</text>
    <text x="44" y="146" class="detail">Expert</text>
  </g>
<g>
    <rect x="188" y="78" width="148" height="76" rx="8" fill="#161b22" stroke="#30363d" />
    <rect x="188" y="78" width="148" height="3" rx="1.5" fill="#58a6ff" />
    <text x="202" y="101" class="label">PEAK RATING</text>
    <text x="202" y="129" class="metric">1668</text>
    <text x="202" y="146" class="detail">Expert</text>
  </g>
<g>
    <rect x="346" y="78" width="148" height="76" rx="8" fill="#161b22" stroke="#30363d" />
    <rect x="346" y="78" width="148" height="3" rx="1.5" fill="#3fb950" />
    <text x="360" y="101" class="label">PROBLEMS SOLVED</text>
    <text x="360" y="129" class="metric">54</text>
    <text x="360" y="146" class="detail">62 attempted</text>
  </g>
<g>
    <rect x="504" y="78" width="148" height="76" rx="8" fill="#161b22" stroke="#30363d" />
    <rect x="504" y="78" width="148" height="3" rx="1.5" fill="#a371f7" />
    <text x="518" y="101" class="label">SUBMISSIONS</text>
    <text x="518" y="129" class="metric">111</text>
    <text x="518" y="146" class="detail">56 accepted</text>
  </g>
<g>
    <rect x="662" y="78" width="148" height="76" rx="8" fill="#161b22" stroke="#30363d" />
    <rect x="662" y="78" width="148" height="3" rx="1.5" fill="#d29922" />
    <text x="676" y="101" class="label">ACCEPTANCE</text>
    <text x="676" y="129" class="metric">50.5%</text>
    <text x="676" y="146" class="detail">all submissions</text>
  </g>
<g>
    <rect x="820" y="78" width="148" height="76" rx="8" fill="#161b22" stroke="#30363d" />
    <rect x="820" y="78" width="148" height="3" rx="1.5" fill="#f778ba" />
    <text x="834" y="101" class="label">RATED CONTESTS</text>
    <text x="834" y="129" class="metric">7</text>
    <text x="834" y="146" class="detail">official contests</text>
  </g>

  <rect x="30" y="174" width="610" height="306" rx="8" fill="#161b22" stroke="#30363d" />
  <text x="50" y="204" class="section">Rating progression</text>
  <text x="50" y="222" class="detail">7 rated contests</text>
  <g>
    <line x1="82" y1="438.0" x2="612" y2="438.0" stroke="#30363d" />
    <text x="70" y="442" class="axis" text-anchor="end">400</text>
    <line x1="82" y1="380.9" x2="612" y2="380.9" stroke="#30363d" />
    <text x="70" y="384.9" class="axis" text-anchor="end">800</text>
    <line x1="82" y1="323.7" x2="612" y2="323.7" stroke="#30363d" />
    <text x="70" y="327.7" class="axis" text-anchor="end">1200</text>
    <line x1="82" y1="266.6" x2="612" y2="266.6" stroke="#30363d" />
    <text x="70" y="270.6" class="axis" text-anchor="end">1600</text>
    <line x1="82" y1="238.0" x2="612" y2="238.0" stroke="#30363d" />
    <text x="70" y="242" class="axis" text-anchor="end">1800</text>
    <text x="82.0" y="460" class="axis" text-anchor="middle">Apr 28</text>
    <text x="347.0" y="460" class="axis" text-anchor="middle">Jun 7</text>
    <text x="612.0" y="460" class="axis" text-anchor="middle">Jun 28</text>
    <path d="M82.0 418.7 L170.3 375.0 L258.7 342.6 L347.0 311.7 L435.3 305.7 L523.7 266.9 L612.0 256.9 L612.0 438 L82.0 438 Z" fill="url(#ratingArea)" />
    <path d="M82.0 418.7 L170.3 375.0 L258.7 342.6 L347.0 311.7 L435.3 305.7 L523.7 266.9 L612.0 256.9" pathLength="1" fill="none" stroke="#58a6ff" stroke-width="4" stroke-linecap="round" stroke-linejoin="round" stroke-dasharray="1" stroke-dashoffset="1">
      <animate attributeName="stroke-dashoffset" from="1" to="0" dur="1.8s" fill="freeze" />
    </path>
    <circle cx="82.0" cy="418.7" r="3.5" fill="#8b949e" stroke="#0d1117" stroke-width="2" />
    <circle cx="170.3" cy="375.0" r="3.5" fill="#8b949e" stroke="#0d1117" stroke-width="2" />
    <circle cx="258.7" cy="342.6" r="3.5" fill="#8b949e" stroke="#0d1117" stroke-width="2" />
    <circle cx="347.0" cy="311.7" r="3.5" fill="#3fb950" stroke="#0d1117" stroke-width="2" />
    <circle cx="435.3" cy="305.7" r="3.5" fill="#3fb950" stroke="#0d1117" stroke-width="2" />
    <circle cx="523.7" cy="266.9" r="3.5" fill="#22d3ee" stroke="#0d1117" stroke-width="2" />
    <circle cx="612.0" cy="256.9" r="3.5" fill="#58a6ff" stroke="#0d1117" stroke-width="2" />
    <text x="612.0" y="242.9" class="value" text-anchor="end">1668</text>
    <circle cx="612.0" cy="256.9" r="7" fill="none" stroke="#58a6ff">
      <animate attributeName="r" values="7;14;7" dur="2.2s" repeatCount="indefinite" />
      <animate attributeName="opacity" values="0.9;0;0.9" dur="2.2s" repeatCount="indefinite" />
    </circle>
  </g>

  <rect x="656" y="174" width="314" height="306" rx="8" fill="#161b22" stroke="#30363d" />
  <text x="676" y="204" class="section">Submission health</text>
  <text x="676" y="248" fill="#f0f6fc" font-size="32" font-weight="750">50.5%</text>
  <text x="676" y="267" class="detail">56 accepted from 111 submissions</text>
  <g>
    <text x="676" y="292" class="small">Accepted</text>
    <rect x="772" y="283" width="138" height="8" rx="4" fill="#21262d" />
    <rect x="772" y="283" width="69.6" height="8" rx="4" fill="#3fb950" />
    <text x="946" y="292" class="small" text-anchor="end">56</text>
  </g>
<g>
    <text x="676" y="324" class="small">Wrong answer</text>
    <rect x="772" y="315" width="138" height="8" rx="4" fill="#21262d" />
    <rect x="772" y="315" width="39.8" height="8" rx="4" fill="#f85149" />
    <text x="946" y="324" class="small" text-anchor="end">32</text>
  </g>
<g>
    <text x="676" y="356" class="small">Time limit</text>
    <rect x="772" y="347" width="138" height="8" rx="4" fill="#21262d" />
    <rect x="772" y="347" width="14.9" height="8" rx="4" fill="#d29922" />
    <text x="946" y="356" class="small" text-anchor="end">12</text>
  </g>
<g>
    <text x="676" y="388" class="small">Runtime error</text>
    <rect x="772" y="379" width="138" height="8" rx="4" fill="#21262d" />
    <rect x="772" y="379" width="12.4" height="8" rx="4" fill="#a371f7" />
    <text x="946" y="388" class="small" text-anchor="end">10</text>
  </g>
<g>
    <text x="676" y="420" class="small">Other</text>
    <rect x="772" y="411" width="138" height="8" rx="4" fill="#21262d" />
    <rect x="772" y="411" width="1.2" height="8" rx="4" fill="#8b949e" />
    <text x="946" y="420" class="small" text-anchor="end">1</text>
  </g>
  <text x="676" y="461" class="detail">Languages: Python 105  /  Kotlin 6</text>

  <rect x="30" y="496" width="940" height="142" rx="8" fill="#161b22" stroke="#30363d" />
  <text x="50" y="526" class="section">Strongest solved-problem tags</text>
  <text x="950" y="526" class="detail" text-anchor="end">counted once per solved problem</text>
  <g>
    <text x="50" y="561" class="small">greedy</text>
    <text x="300" y="561" class="small" text-anchor="end">30</text>
    <rect x="50" y="571" width="250" height="7" rx="3.5" fill="#21262d" />
    <rect x="50" y="571" width="238.0" height="7" rx="3.5" fill="#58a6ff" />
  </g>
<g>
    <text x="356" y="561" class="small">math</text>
    <text x="606" y="561" class="small" text-anchor="end">30</text>
    <rect x="356" y="571" width="250" height="7" rx="3.5" fill="#21262d" />
    <rect x="356" y="571" width="238.0" height="7" rx="3.5" fill="#58a6ff" />
  </g>
<g>
    <text x="662" y="561" class="small">implementation</text>
    <text x="912" y="561" class="small" text-anchor="end">11</text>
    <rect x="662" y="571" width="250" height="7" rx="3.5" fill="#21262d" />
    <rect x="662" y="571" width="87.3" height="7" rx="3.5" fill="#58a6ff" />
  </g>
<g>
    <text x="50" y="609" class="small">sortings</text>
    <text x="300" y="609" class="small" text-anchor="end">10</text>
    <rect x="50" y="619" width="250" height="7" rx="3.5" fill="#21262d" />
    <rect x="50" y="619" width="79.3" height="7" rx="3.5" fill="#58a6ff" />
  </g>
<g>
    <text x="356" y="609" class="small">constructive algorithms</text>
    <text x="606" y="609" class="small" text-anchor="end">9</text>
    <rect x="356" y="619" width="250" height="7" rx="3.5" fill="#21262d" />
    <rect x="356" y="619" width="71.4" height="7" rx="3.5" fill="#58a6ff" />
  </g>
<g>
    <text x="662" y="609" class="small">dp</text>
    <text x="912" y="609" class="small" text-anchor="end">7</text>
    <rect x="662" y="619" width="250" height="7" rx="3.5" fill="#21262d" />
    <rect x="662" y="619" width="55.5" height="7" rx="3.5" fill="#58a6ff" />
  </g>

  <text x="30" y="663" class="detail">Near-live data: the repository refreshes only when Codeforces statistics change.</text>
</svg>
